<svg width="20" height="20" viewBox="0 0 20 20" fill="none" xmlns="http://www.w3.org/2000/svg">
<path d="M14.5833 10.9167C14.1691 10.9167 13.8333 11.2525 13.8333 11.6667C13.8333 12.0809 14.1691 12.4167 14.5833 12.4167V10.9167ZM7.58333 5.41667C7.58333 5.83088 7.91912 6.16667 8.33333 6.16667C8.74755 6.16667 9.08333 5.83088 9.08333 5.41667H7.58333ZM10 3.25H15.8333V1.75H10V3.25ZM16.75 4.16667V10H18.25V4.16667H16.75ZM15.8333 10.9167H14.5833V12.4167H15.8333V10.9167ZM9.08333 5.41667V4.16667H7.58333V5.41667H9.08333ZM16.75 10C16.75 10.5063 16.3396 10.9167 15.8333 10.9167V12.4167C17.168 12.4167 18.25 11.3347 18.25 10H16.75ZM15.8333 3.25C16.3396 3.25 16.75 3.66041 16.75 4.16667H18.25C18.25 2.83198 17.168 1.75 15.8333 1.75V3.25ZM10 1.75C8.66531 1.75 7.58333 2.83198 7.58333 4.16667H9.08333C9.08333 3.66041 9.49374 3.25 10 3.25V1.75ZM4.16667 9.08333H10V7.58333H4.16667V9.08333ZM10.9167 10V15.8333H12.4167V10H10.9167ZM10 16.75H4.16667V18.25H10V16.75ZM3.25 15.8333V10H1.75V15.8333H3.25ZM4.16667 16.75C3.66041 16.75 3.25 16.3396 3.25 15.8333H1.75C1.75 17.168 2.83198 18.25 4.16667 18.25V16.75ZM10.9167 15.8333C10.9167 16.3396 10.5063 16.75 10 16.75V18.25C11.3347 18.25 12.4167 17.168 12.4167 15.8333H10.9167ZM10 9.08333C10.5063 9.08333 10.9167 9.49374 10.9167 10H12.4167C12.4167 8.66531 11.3347 7.58333 10 7.58333V9.08333ZM4.16667 7.58333C2.83198 7.58333 1.75 8.66531 1.75 10H3.25C3.25 9.49374 3.66041 9.08333 4.16667 9.08333V7.58333Z" fill="#001A72"/>
</svg>
