<svg width="24" height="24" viewBox="0 0 24 24" fill="none" xmlns="http://www.w3.org/2000/svg">
<path d="M4 18.2501C3.58579 18.2501 3.25 18.5859 3.25 19.0001C3.25 19.4143 3.58579 19.7501 4 19.7501V18.2501ZM20 19.7501C20.4142 19.7501 20.75 19.4143 20.75 19.0001C20.75 18.5859 20.4142 18.2501 20 18.2501V19.7501ZM11.2929 5.7072L11.8232 6.23753L11.2929 5.7072ZM12.7071 5.7072L12.1768 6.23753V6.23753L12.7071 5.7072ZM7.29289 8.29299L6.76256 8.82332L7.29289 8.29299ZM8.70711 8.29299L8.17678 7.76266L8.70711 8.29299ZM15.2929 8.29299L15.8232 7.76266L15.2929 8.29299ZM5.70711 6.7072L6.23744 6.17687L5.70711 6.7072ZM4 19.7501H20V18.2501H4V19.7501ZM3.25 7.41431V15.0001H4.75V7.41431H3.25ZM5 16.7501H19V15.2501H5V16.7501ZM20.75 15.0001V7.41431H19.25V15.0001H20.75ZM17.7626 6.17687L16.1768 7.76266L17.2374 8.82332L18.8232 7.23753L17.7626 6.17687ZM5.17678 7.23753L6.76256 8.82332L7.82322 7.76266L6.23744 6.17687L5.17678 7.23753ZM9.23744 8.82332L11.8232 6.23753L10.7626 5.17687L8.17678 7.76266L9.23744 8.82332ZM12.1768 6.23753L14.7626 8.82332L15.8232 7.76266L13.2374 5.17687L12.1768 6.23753ZM11.8232 6.23753C11.9209 6.1399 12.0791 6.1399 12.1768 6.23753L13.2374 5.17687C12.554 4.49345 11.446 4.49345 10.7626 5.17687L11.8232 6.23753ZM6.76256 8.82332C7.44598 9.50674 8.55402 9.50673 9.23744 8.82332L8.17678 7.76266C8.07914 7.86029 7.92085 7.86029 7.82322 7.76266L6.76256 8.82332ZM16.1768 7.76266C16.0791 7.86029 15.9209 7.86029 15.8232 7.76266L14.7626 8.82332C15.446 9.50673 16.554 9.50673 17.2374 8.82332L16.1768 7.76266ZM20.75 7.41431C20.75 5.85522 18.865 5.07443 17.7626 6.17687L18.8232 7.23753C18.9807 7.08004 19.25 7.19158 19.25 7.41431H20.75ZM19 16.7501C19.9665 16.7501 20.75 15.9666 20.75 15.0001H19.25C19.25 15.1382 19.1381 15.2501 19 15.2501V16.7501ZM3.25 15.0001C3.25 15.9666 4.0335 16.7501 5 16.7501V15.2501C4.86193 15.2501 4.75 15.1382 4.75 15.0001H3.25ZM4.75 7.41431C4.75 7.19158 5.01929 7.08004 5.17678 7.23753L6.23744 6.17687C5.135 5.07443 3.25 5.85522 3.25 7.41431H4.75Z" fill="#001A72"/>
</svg>
