<svg width="24" height="24" viewBox="0 0 24 24" fill="none" xmlns="http://www.w3.org/2000/svg">
<path d="M18.2355 18.562L17.5073 18.7416V18.7416L18.2355 18.562ZM16.6206 19.8751L16.9596 19.2061H16.9596L16.6206 19.8751ZM17.5327 13.6117L18.0935 14.1097L17.5327 13.6117ZM17.2742 14.6645L18.0024 14.4849V14.4849L17.2742 14.6645ZM19.9463 8.11364L19.888 8.86137L19.9463 8.11364ZM20.7058 10.0378L20.145 9.53987V9.53987L20.7058 10.0378ZM14.5699 7.09485L13.8855 7.40172L14.5699 7.09485ZM15.5197 7.76848L15.578 7.02075L15.5197 7.76848ZM10.9627 3.67703L10.2784 3.37016V3.37016L10.9627 3.67703ZM13.0373 3.67703L13.7216 3.37016V3.37016L13.0373 3.67703ZM8.48026 7.76848L8.42196 7.02075L8.48026 7.76848ZM9.43013 7.09485L10.1145 7.40172L9.43013 7.09485ZM3.29416 10.0378L2.73331 10.5358L3.29416 10.0378ZM4.05367 8.11364L4.11197 8.86137L4.05367 8.11364ZM6.72576 14.6645L5.99758 14.4849L6.72576 14.6645ZM6.46729 13.6117L5.90645 14.1097L6.46729 13.6117ZM7.37943 19.8751L7.04037 19.2061L7.37943 19.8751ZM5.76452 18.562L6.4927 18.7416L5.76452 18.562ZM11.4905 17.7915L11.8295 18.4605L11.4905 17.7915ZM12.5095 17.7915L12.1705 18.4605H12.1705L12.5095 17.7915ZM11.1514 17.1225L7.04037 19.2061L7.71849 20.5441L11.8295 18.4605L11.1514 17.1225ZM6.4927 18.7416L7.45394 14.8441L5.99758 14.4849L5.03634 18.3824L6.4927 18.7416ZM7.02814 13.1138L3.855 9.53987L2.73331 10.5358L5.90645 14.1097L7.02814 13.1138ZM4.11197 8.86137L8.53857 8.51621L8.42196 7.02075L3.99536 7.36591L4.11197 8.86137ZM10.1145 7.40172L11.6471 3.98391L10.2784 3.37016L8.74579 6.78798L10.1145 7.40172ZM12.3529 3.9839L13.8855 7.40172L15.2542 6.78798L13.7216 3.37016L12.3529 3.9839ZM15.4614 8.51621L19.888 8.86137L20.0046 7.36591L15.578 7.02075L15.4614 8.51621ZM20.145 9.53987L16.9719 13.1138L18.0935 14.1097L21.2667 10.5358L20.145 9.53987ZM16.5461 14.844L17.5073 18.7416L18.9637 18.3824L18.0024 14.4849L16.5461 14.844ZM16.9596 19.2061L12.8486 17.1225L12.1705 18.4605L16.2815 20.5441L16.9596 19.2061ZM17.5073 18.7416C17.5961 19.1015 17.2347 19.3455 16.9596 19.2061L16.2815 20.5441C17.7478 21.2873 19.3471 19.937 18.9637 18.3824L17.5073 18.7416ZM16.9719 13.1138C16.5535 13.585 16.3954 14.2333 16.5461 14.8441L18.0024 14.4849C17.9692 14.3503 18.0049 14.2095 18.0935 14.1097L16.9719 13.1138ZM19.888 8.86137C20.1962 8.8854 20.3773 9.27823 20.145 9.53987L21.2667 10.5358C22.2994 9.37263 21.5819 7.4889 20.0046 7.36591L19.888 8.86137ZM13.8855 7.40172C14.1681 8.03186 14.7699 8.46229 15.4614 8.51621L15.578 7.02075C15.4414 7.0101 15.3154 6.92432 15.2542 6.78798L13.8855 7.40172ZM11.6471 3.98391C11.7869 3.67203 12.2131 3.67203 12.3529 3.9839L13.7216 3.37016C13.0519 1.87661 10.9481 1.87662 10.2784 3.37016L11.6471 3.98391ZM8.53857 8.51621C9.2301 8.46229 9.83192 8.03186 10.1145 7.40172L8.74579 6.78798C8.68465 6.92432 8.55857 7.0101 8.42196 7.02075L8.53857 8.51621ZM3.855 9.53987C3.62269 9.27823 3.80385 8.8854 4.11197 8.86137L3.99536 7.36591C2.41805 7.4889 1.7006 9.37264 2.73331 10.5358L3.855 9.53987ZM7.45394 14.8441C7.60457 14.2333 7.44653 13.585 7.02814 13.1138L5.90645 14.1097C5.99505 14.2095 6.03076 14.3503 5.99758 14.4849L7.45394 14.8441ZM7.04037 19.2061C6.76533 19.3455 6.40393 19.1015 6.4927 18.7416L5.03634 18.3824C4.65292 19.937 6.25219 21.2873 7.71849 20.5441L7.04037 19.2061ZM11.8295 18.4605C11.9371 18.406 12.0629 18.406 12.1705 18.4605L12.8486 17.1225C12.3147 16.8519 11.6853 16.8519 11.1514 17.1225L11.8295 18.4605Z" fill="#001A72"/>
</svg>
