<svg width="20" height="20" viewBox="0 0 20 20" fill="none" xmlns="http://www.w3.org/2000/svg">
<path d="M17.0833 16.75C16.6691 16.75 16.3333 17.0858 16.3333 17.5C16.3333 17.9142 16.6691 18.25 17.0833 18.25V16.75ZM15.9795 11.5908C15.5733 11.5101 15.1785 11.774 15.0977 12.1803C15.017 12.5865 15.2809 12.9813 15.6871 13.0621L15.9795 11.5908ZM12.5 8.41667C12.0858 8.41667 11.75 8.75245 11.75 9.16667C11.75 9.58088 12.0858 9.91667 12.5 9.91667V8.41667ZM12.5 1.75C12.0858 1.75 11.75 2.08579 11.75 2.5C11.75 2.91421 12.0858 3.25 12.5 3.25V1.75ZM18.4167 15.4167C18.4167 16.153 17.8197 16.75 17.0833 16.75V18.25C18.6481 18.25 19.9167 16.9815 19.9167 15.4167H18.4167ZM15.6871 13.0621C16.4894 13.2215 17.19 13.4783 17.6764 13.8609C18.13 14.2178 18.4167 14.6946 18.4167 15.4167H19.9167C19.9167 14.1992 19.3901 13.3005 18.6038 12.682C17.8502 12.0892 16.8842 11.7706 15.9795 11.5908L15.6871 13.0621ZM15.0833 5.83333C15.0833 7.26007 13.9267 8.41667 12.5 8.41667V9.91667C14.7552 9.91667 16.5833 8.0885 16.5833 5.83333H15.0833ZM12.5 3.25C13.9267 3.25 15.0833 4.4066 15.0833 5.83333H16.5833C16.5833 3.57817 14.7552 1.75 12.5 1.75V3.25ZM2.91668 18.2501H12.0833V16.7501H2.91668V18.2501ZM7.50001 11.3334C6.6869 11.3334 4.91428 11.3118 3.33949 11.7526C2.54818 11.9742 1.74097 12.3292 1.12301 12.9186C0.482743 13.5292 0.0833435 14.3575 0.0833435 15.4168H1.58334C1.58334 14.7757 1.80894 14.3372 2.15826 14.004C2.52989 13.6496 3.07684 13.3838 3.74386 13.1971C5.08574 12.8214 6.64645 12.8334 7.50001 12.8334V11.3334ZM7.50001 12.8334C8.35357 12.8334 9.91428 12.8214 11.2562 13.1971C11.9232 13.3838 12.4701 13.6496 12.8418 14.004C13.1911 14.3372 13.4167 14.7757 13.4167 15.4168H14.9167C14.9167 14.3575 14.5173 13.5292 13.877 12.9186C13.2591 12.3292 12.4518 11.9742 11.6605 11.7526C10.0857 11.3118 8.31312 11.3334 7.50001 11.3334V12.8334ZM0.0833435 15.4168C0.0833435 16.9816 1.35187 18.2501 2.91668 18.2501V16.7501C2.1803 16.7501 1.58334 16.1531 1.58334 15.4168H0.0833435ZM13.4167 15.4168C13.4167 16.1531 12.8197 16.7501 12.0833 16.7501V18.2501C13.6481 18.2501 14.9167 16.9816 14.9167 15.4168H13.4167ZM10.0833 5.83333C10.0833 7.26007 8.92674 8.41667 7.50001 8.41667V9.91667C9.75517 9.91667 11.5833 8.0885 11.5833 5.83333H10.0833ZM7.50001 8.41667C6.07327 8.41667 4.91668 7.26007 4.91668 5.83333H3.41668C3.41668 8.0885 5.24485 9.91667 7.50001 9.91667V8.41667ZM4.91668 5.83333C4.91668 4.4066 6.07327 3.25 7.50001 3.25V1.75C5.24485 1.75 3.41668 3.57817 3.41668 5.83333H4.91668ZM7.50001 3.25C8.92674 3.25 10.0833 4.4066 10.0833 5.83333H11.5833C11.5833 3.57817 9.75517 1.75 7.50001 1.75V3.25Z" fill="#001A72"/>
</svg>
