<svg width="24" height="24" viewBox="0 0 24 24" fill="none" xmlns="http://www.w3.org/2000/svg">
<path d="M6.5 21.7501H17.5V20.2501H6.5V21.7501ZM12 13.7501C11.0202 13.7501 8.91427 13.7251 7.04781 14.2476C6.11067 14.5099 5.16804 14.9271 4.45112 15.6108C3.7119 16.3158 3.25 17.2708 3.25 18.5001H4.75C4.75 17.689 5.0381 17.1238 5.48638 16.6963C5.95696 16.2475 6.63933 15.9196 7.45219 15.6921C9.08573 15.2348 10.9798 15.2501 12 15.2501V13.7501ZM12 15.2501C13.0202 15.2501 14.9143 15.2348 16.5478 15.6921C17.3607 15.9196 18.043 16.2475 18.5136 16.6963C18.9619 17.1238 19.25 17.689 19.25 18.5001H20.75C20.75 17.2708 20.2881 16.3158 19.5489 15.6108C18.832 14.9271 17.8893 14.5099 16.9522 14.2476C15.0857 13.7251 12.9798 13.7501 12 13.7501V15.2501ZM3.25 18.5001C3.25 20.295 4.70507 21.7501 6.5 21.7501V20.2501C5.5335 20.2501 4.75 19.4666 4.75 18.5001H3.25ZM19.25 18.5001C19.25 19.4666 18.4665 20.2501 17.5 20.2501V21.7501C19.2949 21.7501 20.75 20.295 20.75 18.5001H19.25ZM15.25 7C15.25 8.79493 13.7949 10.25 12 10.25V11.75C14.6234 11.75 16.75 9.62335 16.75 7H15.25ZM12 10.25C10.2051 10.25 8.75 8.79493 8.75 7H7.25C7.25 9.62335 9.37665 11.75 12 11.75V10.25ZM8.75 7C8.75 5.20507 10.2051 3.75 12 3.75V2.25C9.37665 2.25 7.25 4.37665 7.25 7H8.75ZM12 3.75C13.7949 3.75 15.25 5.20507 15.25 7H16.75C16.75 4.37665 14.6234 2.25 12 2.25V3.75Z" fill="#001A72"/>
</svg>
